<svg width="150" height="113" viewBox="0 0 150 113" fill="none" xmlns="http://www.w3.org/2000/svg">
<path d="M26.8785 22.8514C79.8959 22.4909 48.9691 45.3083 26.8785 56.762L59.0223 66.1082L53.7312 93.9352L20 73.0977L26.8785 20.1475M116.035 100.5C107.877 71.5464 96.4573 10.4137 116.035 20.1475C136.035 28.89 139.624 39.1871 138.919 43.2428L134.157 59.5785L112.066 62.3951L110.876 63.747M79.6578 34.1174C79.6578 84.9271 29.3918 111.853 85.3458 90.7854C130.109 73.9314 100.205 45.9842 79.6578 34.1174Z" stroke="#FA0808" stroke-width="20"/>
<path d="M16 7C23.7288 7 19.2542 23.3876 21.2881 17.8616C22.9153 13.4407 26.4407 10.557 28 9.66776" stroke="#FA0808" stroke-width="13"/>
<path d="M128 90C135.729 90 131.254 107.753 133.288 101.767C134.915 96.9775 138.441 93.8534 140 92.8901" stroke="#FA0808" stroke-width="13"/>
<path d="M75 29C80.1525 29 77.1695 38.5595 78.5254 35.3359C79.6102 32.7571 81.9605 31.0749 83 30.5562" stroke="#FA0808" stroke-width="12"/>
<path d="M134 102.65C118.141 102.65 115.391 110.188 111.218 102.65M111.218 102.65C107.879 96.6193 101.368 48.0801 111.218 102.65Z" stroke="#FA0808" stroke-width="13"/>
<path d="M79.6186 42C72.1509 53.5562 56.8016 110.052 59.2646 105.769C61.235 102.342 105.527 87.7714 112 100.929" stroke="#FA0808" stroke-width="13"/>
</svg>
